<svg height="248" viewBox="0 0 281 248" width="281" xmlns="http://www.w3.org/2000/svg"><g fill="#050302" fill-rule="evenodd"><path d="m140.039 8.8674c60.8 0 110.805 46.096 116.043 104.651 3.136.756 6.125 1.506 8.983 2.245-4.164-64.503-58.57-115.763-125.026-115.763-66.492 0-120.922 51.315-125.032 115.869 2.832-.781 5.834-1.568 8.989-2.369 5.247-58.547 55.25-104.633 116.043-104.633"/><path d="m140.039 238.4572c-49.946 0-92.53-31.153-109.091-74.719-3.097.498-6.074.995-8.892 1.495 17.376 47.767 63.633 82.092 117.983 82.092 54.535 0 100.929-34.558 118.165-82.581-2.814-.479-5.841-.954-8.92-1.427-16.444 43.785-59.141 75.14-109.245 75.14"/><path d="m276.8622 151.6608c-3.509-1.076-86.312-25.948-122.765 11.693-.399.415-.717.898-.936 1.432-3.654 8.871-5.58 11.104-13.124 11.104-7.547 0-9.473-2.233-13.127-11.104-.218-.534-.537-1.017-.937-1.432-36.454-37.644-119.255-12.769-122.763-11.693-2.399.737-3.745 3.281-3.009 5.679.735 2.397 3.271 3.744 5.678 3.012.8-.249 80.021-24.034 112.973 8.724 3.805 9.074 8.021 15.903 21.185 15.903 13.162 0 17.377-6.829 21.182-15.903 32.955-32.763 112.173-8.973 112.974-8.724 2.398.732 4.941-.615 5.677-3.012.737-2.398-.611-4.942-3.008-5.679"/><path d="m136.289 163.7936c-14.272-21.185-60.778-44.161-132.935-21.185 5.815-7.84 7.457-10.413 7.74-11.122 0 0 94.702-27.848 125.195 32.307"/><path d="m143.7831 163.7936c14.273-21.185 60.778-44.161 132.935-21.185-5.824-7.852-7.462-10.42-7.741-11.125 0 0-94.7-27.845-125.194 32.31"/><path d="m140.3788 151.9421c6.184-16.067 45.224-42.932 105.422-31.21l-8.036-10.384c-15.283-1.47-79.094-4.679-97.386 41.594"/><path d="m139.6923 151.9421c-6.184-16.067-45.224-42.932-105.422-31.21l8.036-10.384c15.284-1.47 79.094-4.679 97.386 41.594"/></g></svg>